<?xml version="1.0" encoding="UTF-8"?>
<svg xmlns="http://www.w3.org/2000/svg" viewBox="0 0 276 319" width="276" height="319">
  <g transform="translate(0,319) scale(0.1,-0.1)" fill="#55E200" stroke="none">
    <path d="M1147 3056 c-125 -73 -232 -137 -237 -142 -6 -6 38 -37 123 -86 72 -42 380 -219 682 -393 303 -174 553 -322 557 -328 4 -7 8 -162 8 -345 0 -184 4 -332 8 -330 4 2 112 63 240 137 l232 134 0 346 0 346 -313 179 c-171 99 -482 278 -689 398 -208 120 -379 218 -380 217 -2 0 -105 -60 -231 -133z"/>
    <path d="M293 2563 l-292 -168 0 -800 0 -800 197 -112 c108 -62 215 -124 238 -138 l41 -24 6 322 c4 177 7 536 7 797 l0 475 58 32 c105 59 487 281 506 295 18 13 0 25 -218 151 -131 75 -241 137 -245 137 -3 0 -138 -75 -298 -167z"/>
    <path d="M1103 2122 c-150 -86 -273 -159 -273 -163 0 -3 124 -76 276 -162 l276 -158 141 82 c78 45 202 116 274 158 73 42 133 78 133 81 0 5 -544 320 -551 320 -2 -1 -127 -72 -276 -158z"/>
    <path d="M1695 1720 l-270 -157 -3 -303 c-1 -167 1 -307 6 -312 4 -4 102 47 217 113 116 67 235 135 265 152 30 17 58 36 62 41 4 6 8 144 8 306 0 162 -4 300 -8 306 -4 7 -100 -43 -277 -146z"/>
    <path d="M790 1560 l0 -310 23 -14 c56 -35 496 -286 511 -292 15 -6 16 18 14 307 l-3 314 -265 152 c-146 84 -268 153 -272 153 -5 0 -8 -139 -8 -310z"/>
    <path d="M2505 1213 c-235 -137 -369 -215 -907 -525 l-217 -126 -293 169 c-161 93 -296 169 -300 169 -4 0 -9 -124 -10 -275 l-3 -276 303 -174 304 -174 331 191 c530 306 742 428 899 519 l148 84 0 283 c0 155 -1 282 -2 281 -2 0 -115 -66 -253 -146z"/>
  </g>
</svg>
